<svg width="830" height="146" viewBox="0 0 830 146" fill="none" xmlns="http://www.w3.org/2000/svg">
<g filter="url(#filter0_d_278_37)">
<mask id="mask0_278_37" style="mask-type:luminance" maskUnits="userSpaceOnUse" x="4" y="9" width="822" height="129">
<path d="M806 9H24C12.9543 9 4 17.4344 4 27.8387V118.265C4 128.669 12.9543 137.103 24 137.103H806C817.046 137.103 826 128.669 826 118.265V27.8387C826 17.4344 817.046 9 806 9Z" fill="white"/>
</mask>
<g mask="url(#mask0_278_37)">
<path d="M806 9H24C12.9543 9 4 17.4344 4 27.8387V118.265C4 128.669 12.9543 137.103 24 137.103H806C817.046 137.103 826 128.669 826 118.265V27.8387C826 17.4344 817.046 9 806 9Z" fill="url(#paint0_linear_278_37)"/>
<path d="M806 9H24C12.9543 9 4 17.4344 4 27.8387V118.265C4 128.669 12.9543 137.103 24 137.103H806C817.046 137.103 826 128.669 826 118.265V27.8387C826 17.4344 817.046 9 806 9Z" fill="url(#paint1_linear_278_37)"/>
</g>
<g clip-path="url(#clip0_278_37)">
<path d="M342.724 84.4083C340.858 84.4083 339.1 84.1332 337.45 83.5831C335.8 83.0329 334.408 82.139 333.272 80.9012C332.136 79.6634 331.379 78.0268 331 75.9913H335.422C335.773 77.1466 336.341 78.0543 337.126 78.7144C337.91 79.3471 338.816 79.7872 339.844 80.0347C340.898 80.2823 341.953 80.4061 343.008 80.4061C344.009 80.4061 344.942 80.2685 345.807 79.9935C346.699 79.7184 347.43 79.2646 347.998 78.6319C348.566 77.9993 348.85 77.1741 348.85 76.1564C348.85 75.3862 348.701 74.7535 348.403 74.2584C348.106 73.7633 347.687 73.3645 347.146 73.0619C346.632 72.7318 346.01 72.4705 345.28 72.278C344.441 72.0029 343.535 71.7691 342.562 71.5765C341.615 71.384 340.668 71.164 339.722 70.9164C338.802 70.6688 337.937 70.3525 337.126 69.9674C336.45 69.6924 335.787 69.3623 335.138 68.9772C334.516 68.5646 333.975 68.0832 333.515 67.5331C333.055 66.9555 332.677 66.2816 332.379 65.5114C332.109 64.7412 331.974 63.861 331.974 62.8708C331.974 61.5505 332.176 60.4227 332.582 59.4875C333.015 58.5523 333.569 57.7684 334.245 57.1357C334.949 56.5031 335.746 56.008 336.639 55.6504C337.558 55.2653 338.518 54.9902 339.519 54.8252C340.52 54.6602 341.493 54.5776 342.44 54.5776C344.171 54.5776 345.766 54.8527 347.227 55.4028C348.687 55.9529 349.891 56.8332 350.837 58.0434C351.811 59.2262 352.338 60.7941 352.419 62.747H348.241C348.133 61.7018 347.781 60.8766 347.186 60.2714C346.618 59.6388 345.902 59.1987 345.036 58.9511C344.171 58.6761 343.251 58.5385 342.278 58.5385C341.574 58.5385 340.871 58.6073 340.168 58.7448C339.465 58.8549 338.816 59.0749 338.221 59.405C337.653 59.7076 337.193 60.1202 336.842 60.6428C336.517 61.1654 336.355 61.8118 336.355 62.582C336.355 63.2421 336.49 63.8335 336.761 64.3561C337.031 64.8512 337.41 65.2776 337.896 65.6352C338.41 65.9653 338.978 66.2541 339.6 66.5016C340.736 66.9417 341.98 67.2856 343.332 67.5331C344.685 67.7532 345.956 68.0695 347.146 68.4821C348.011 68.7571 348.822 69.101 349.58 69.5136C350.337 69.8987 350.986 70.38 351.527 70.9577C352.068 71.5078 352.487 72.1679 352.785 72.9381C353.082 73.6808 353.231 74.5472 353.231 75.5375C353.231 77.1603 352.947 78.5494 352.379 79.7047C351.811 80.8324 351.04 81.7401 350.067 82.4278C349.093 83.1155 347.971 83.6243 346.699 83.9544C345.428 84.257 344.103 84.4083 342.724 84.4083Z" fill="black"/>
<path d="M357.988 84.0782V54.9077H362.167V71.3702H365.615L371.619 62.3344H376.325L369.306 72.6906L376.933 84.0782H372.024L365.939 75.1249H362.167V84.0782H357.988Z" fill="black"/>
<path d="M379.619 84.0782V62.3344H383.797V84.0782H379.619ZM381.688 59.4463C380.876 59.4463 380.214 59.1987 379.7 58.7036C379.213 58.181 378.97 57.5208 378.97 56.7231C378.97 55.9254 379.227 55.279 379.74 54.7839C380.254 54.2613 380.903 54 381.688 54C382.418 54 383.053 54.2613 383.594 54.7839C384.162 55.279 384.446 55.9254 384.446 56.7231C384.446 57.5208 384.176 58.181 383.635 58.7036C383.121 59.1987 382.472 59.4463 381.688 59.4463Z" fill="black"/>
<path d="M388.968 84.0782V54.9077H393.147V84.0782H388.968Z" fill="black"/>
<path d="M398.318 84.0782V54.9077H402.496V84.0782H398.318Z" fill="black"/>
<path d="M419.918 84.4083C417.214 84.4083 414.996 83.8581 413.265 82.7579C411.561 81.6301 410.304 80.0898 409.493 78.1368C408.681 76.1839 408.276 73.9146 408.276 71.329V54.9077H412.576V71.3702C412.576 72.9931 412.806 74.4922 413.265 75.8675C413.725 77.2429 414.496 78.3431 415.578 79.1683C416.659 79.9935 418.12 80.4061 419.959 80.4061C421.825 80.4061 423.285 79.9935 424.34 79.1683C425.395 78.3431 426.139 77.2429 426.571 75.8675C427.004 74.4922 427.22 72.9931 427.22 71.3702V54.9077H431.561V71.329C431.561 73.8871 431.155 76.1564 430.344 78.1368C429.533 80.0898 428.275 81.6301 426.571 82.7579C424.867 83.8581 422.65 84.4083 419.918 84.4083Z" fill="black"/>
<path d="M437.3 92V62.3344H441.276L441.478 65.4289C442.236 64.3011 443.223 63.4622 444.44 62.9121C445.657 62.3344 446.982 62.0456 448.415 62.0456C450.552 62.0456 452.31 62.5407 453.689 63.5309C455.068 64.4937 456.096 65.8277 456.772 67.5331C457.448 69.211 457.786 71.0952 457.786 73.1857C457.786 75.3312 457.435 77.2429 456.732 78.9207C456.056 80.5986 455.001 81.9189 453.567 82.8817C452.161 83.8444 450.376 84.3257 448.213 84.3257C447.185 84.3257 446.238 84.2157 445.373 83.9957C444.534 83.7756 443.791 83.4593 443.142 83.0467C442.52 82.6066 441.965 82.0977 441.478 81.5201V92H437.3ZM447.685 80.5299C449.146 80.5299 450.309 80.1998 451.174 79.5396C452.039 78.852 452.661 77.958 453.04 76.8578C453.419 75.7575 453.608 74.561 453.608 73.2682C453.608 71.9204 453.405 70.6963 452.999 69.5961C452.621 68.4683 451.985 67.5744 451.093 66.9142C450.227 66.2266 449.064 65.8827 447.604 65.8827C446.279 65.8827 445.157 66.2266 444.237 66.9142C443.317 67.5744 442.614 68.4683 442.128 69.5961C441.668 70.7239 441.438 71.9479 441.438 73.2682C441.438 74.616 441.654 75.8538 442.087 76.9815C442.547 78.0818 443.236 78.9482 444.156 79.5809C445.102 80.2135 446.279 80.5299 447.685 80.5299Z" fill="black"/>
<path fill-rule="evenodd" clip-rule="evenodd" d="M499 59.4344L482.776 81.6604L476.531 75.6117L468.589 86.7192L464.729 83.8642L475.877 68.2744L482.16 74.3608L495.168 56.5409L499 59.4344Z" fill="#A042F0"/>
</g>
</g>
<defs>
<filter id="filter0_d_278_37" x="0" y="9" width="830" height="136.103" filterUnits="userSpaceOnUse" color-interpolation-filters="sRGB">
<feFlood flood-opacity="0" result="BackgroundImageFix"/>
<feColorMatrix in="SourceAlpha" type="matrix" values="0 0 0 0 0 0 0 0 0 0 0 0 0 0 0 0 0 0 127 0" result="hardAlpha"/>
<feOffset dy="4"/>
<feGaussianBlur stdDeviation="2"/>
<feComposite in2="hardAlpha" operator="out"/>
<feColorMatrix type="matrix" values="0 0 0 0 0.631373 0 0 0 0 0.631373 0 0 0 0 0.631373 0 0 0 0.25 0"/>
<feBlend mode="normal" in2="BackgroundImageFix" result="effect1_dropShadow_278_37"/>
<feBlend mode="normal" in="SourceGraphic" in2="effect1_dropShadow_278_37" result="shape"/>
</filter>
<linearGradient id="paint0_linear_278_37" x1="4" y1="73.0516" x2="826" y2="73.0516" gradientUnits="userSpaceOnUse">
<stop stop-color="white"/>
<stop offset="1" stop-color="#999999"/>
</linearGradient>
<linearGradient id="paint1_linear_278_37" x1="-416.954" y1="-551.677" x2="-216.924" y2="235.013" gradientUnits="userSpaceOnUse">
<stop stop-color="#A042F0"/>
<stop offset="1" stop-color="white"/>
</linearGradient>
<clipPath id="clip0_278_37">
<rect width="168" height="38" fill="white" transform="translate(331 54)"/>
</clipPath>
</defs>
</svg>
