<svg width="32" height="32" viewBox="0 0 32 32" fill="none" xmlns="http://www.w3.org/2000/svg">
<!-- Cet SVG n'est pas completement rond ! (uniquement pour l'effet hover de la landing !) :) -->
  <g clip-path="url(#clip0_87_2)">
    <rect width="32" height="32" rx="10" fill="#EDE3FF" />
    <g opacity="0.76">
      <path d="M10.1009 22.6522C9.24661 22.9441 8.82863 23.1169 8.17771 23.447C7.2831 23.9007 6.50724 24.4593 5.86904 25.0989C5.29705 25.6722 4.83563 26.3106 4.4984 26.9972C7.41473 30.0781 11.543 32 16.1201 32C20.6857 32 24.8047 30.0877 27.7198 27.0204C27.6347 26.845 27.5414 26.673 27.4393 26.5038C27.1323 25.9949 26.7468 25.5114 26.2726 25.0365C25.6002 24.3632 24.869 23.8413 23.9661 23.3905C23.1514 22.9838 21.4717 22.3996 21.2297 22.4389C21.1568 22.4507 20.9399 22.5679 20.7477 22.6994C19.5583 23.513 17.7166 24.045 16.0897 24.045C14.4261 24.045 12.6322 23.5277 11.4176 22.6977C11.2026 22.5508 11.0093 22.4507 10.9198 22.44C10.8164 22.4275 10.5757 22.4899 10.1009 22.6522Z" fill="#A042F0" />
      <path d="M15.3675 5.9136C13.3829 6.07695 11.4508 7.08853 10.1553 8.64263C8.87364 10.1802 8.18455 12.3126 8.34452 14.2463C8.42837 15.2602 8.67463 16.1864 9.09402 17.0654C9.89911 18.7526 11.3877 20.1655 13.1174 20.8843C14.8761 21.6152 16.7871 21.6887 18.5729 21.0941C19.7779 20.6929 20.7575 20.0626 21.7065 19.0778C22.6016 18.149 23.2225 17.0695 23.5692 15.8396C23.7983 15.0265 23.8407 14.692 23.841 13.6902C23.8414 12.6262 23.7717 12.1695 23.4649 11.2289C23.0719 10.0243 22.4964 9.08093 21.6068 8.18324C20.2823 6.84674 18.5621 6.05317 16.6779 5.90937C16.0666 5.86272 15.9822 5.86301 15.3675 5.9136Z" fill="#A042F0" />
      <path fill-rule="evenodd" clip-rule="evenodd" d="M16.12 36.5C22.7474 36.5 28.2501 33.1421 28.2501 29C28.2501 28.1248 27.8802 27.2847 27.4393 26.5038C27.1323 25.9949 26.7468 25.5114 26.2726 25.0365C25.6002 24.3632 24.869 23.8413 23.9661 23.3905C23.1514 22.9838 21.4717 22.3996 21.2297 22.4389C21.1568 22.4507 20.9399 22.5679 20.7477 22.6994C19.5583 23.513 17.7166 24.045 16.0897 24.045C14.4261 24.045 12.6322 23.5277 11.4176 22.6977C11.2026 22.5508 11.0093 22.4507 10.9198 22.44C10.8164 22.4275 10.5757 22.4899 10.1009 22.6522C9.24661 22.9441 8.82863 23.1169 8.17771 23.447C7.2831 23.9007 6.50724 24.4593 5.86904 25.0989C4.75969 26.2354 4 27.5713 4 29C4 33.1421 9.49256 36.5 16.12 36.5Z" fill="#A042F0" />
    </g>
  </g>
  <defs>
    <clipPath id="clip0_87_2">
      <rect width="32" height="32" rx="10" fill="white" />
    </clipPath>
  </defs>
</svg>